<svg xmlns="http://www.w3.org/2000/svg" width="240" height="180" viewBox="0 0 240 180">
  <rect width="240" height="180" rx="18" fill="#e05b62"/><path d="M18 18h204v144H18z" fill="#f7dfa0" stroke="#302c38" stroke-width="7"/>
  <path d="M65 81L54 49l30 16c11-6 22-6 33 0l30-16-11 32c7 11 7 31 0 43-8 16-23 22-36 22s-28-6-36-22c-7-12-7-32 1-43z" fill="#d78257" stroke="#302c38" stroke-width="6"/>
  <circle cx="85" cy="95" r="6" fill="#302c38"/><circle cx="117" cy="95" r="6" fill="#302c38"/><path d="M94 112q7 7 14 0" fill="none" stroke="#302c38" stroke-width="4"/>
  <path d="M150 54h58v78h-58z" fill="#fff" stroke="#302c38" stroke-width="5"/><text x="179" y="82" text-anchor="middle" font-family="sans-serif" font-size="17" font-weight="bold" fill="#302c38">SOLD</text><text x="179" y="111" text-anchor="middle" font-family="sans-serif" font-size="25" font-weight="bold" fill="#d9424c">£££</text>
</svg>
